<mxfile host="app.diagrams.net" agent="Mozilla/5.0 (X11; Linux x86_64) AppleWebKit/537.36 (KHTML, like Gecko) Chrome/130.0.0.0 Safari/537.36" version="26.2.13" pages="2">
  <diagram id="eSAZJckSD9APAwyUzNQQ" name="Flow">
    <mxGraphModel dx="1250" dy="1596" grid="1" gridSize="10" guides="1" tooltips="1" connect="1" arrows="1" fold="1" page="1" pageScale="1" pageWidth="850" pageHeight="1100" math="0" shadow="0">
      <root>
        <mxCell id="0" />
        <mxCell id="1" parent="0" />
        <mxCell id="aSV1qzU1Hw4xgHWF6KSb-18" value="&lt;div&gt;c minilib config&lt;/div&gt;" style="swimlane;html=1;childLayout=stackLayout;startSize=20;rounded=0;shadow=0;comic=0;labelBackgroundColor=none;strokeWidth=1;fontFamily=Verdana;fontSize=12;align=center;" parent="1" vertex="1">
          <mxGeometry x="680" y="790" width="1130" height="1090" as="geometry" />
        </mxCell>
        <mxCell id="aSV1qzU1Hw4xgHWF6KSb-19" value="Create config" style="swimlane;html=1;startSize=20;" parent="aSV1qzU1Hw4xgHWF6KSb-18" vertex="1">
          <mxGeometry y="20" width="370" height="1070" as="geometry" />
        </mxCell>
        <mxCell id="aSV1qzU1Hw4xgHWF6KSb-82" value="" style="edgeStyle=orthogonalEdgeStyle;rounded=0;orthogonalLoop=1;jettySize=auto;html=1;" parent="aSV1qzU1Hw4xgHWF6KSb-19" source="aSV1qzU1Hw4xgHWF6KSb-80" target="aSV1qzU1Hw4xgHWF6KSb-81" edge="1">
          <mxGeometry relative="1" as="geometry" />
        </mxCell>
        <mxCell id="aSV1qzU1Hw4xgHWF6KSb-80" value="" style="ellipse;whiteSpace=wrap;html=1;rounded=0;shadow=0;comic=0;labelBackgroundColor=none;strokeWidth=1;fillColor=#000000;fontFamily=Verdana;fontSize=12;align=center;" parent="aSV1qzU1Hw4xgHWF6KSb-19" vertex="1">
          <mxGeometry x="135" y="49" width="40" height="40" as="geometry" />
        </mxCell>
        <mxCell id="C-tCBTNLucwurh1lbzCi-8" value="" style="edgeStyle=orthogonalEdgeStyle;rounded=0;orthogonalLoop=1;jettySize=auto;html=1;entryX=0.5;entryY=0;entryDx=0;entryDy=0;" edge="1" parent="aSV1qzU1Hw4xgHWF6KSb-19" source="aSV1qzU1Hw4xgHWF6KSb-81" target="aSV1qzU1Hw4xgHWF6KSb-83">
          <mxGeometry relative="1" as="geometry" />
        </mxCell>
        <mxCell id="aSV1qzU1Hw4xgHWF6KSb-81" value="User allocates&amp;nbsp;&lt;span style=&quot;background-color: transparent; color: light-dark(rgb(0, 0, 0), rgb(255, 255, 255));&quot;&gt;config&lt;/span&gt;" style="rounded=1;whiteSpace=wrap;html=1;shadow=0;comic=0;labelBackgroundColor=none;strokeWidth=1;fontFamily=Verdana;fontSize=12;align=center;arcSize=50;" parent="aSV1qzU1Hw4xgHWF6KSb-19" vertex="1">
          <mxGeometry x="105" y="129" width="100" height="30" as="geometry" />
        </mxCell>
        <mxCell id="C-tCBTNLucwurh1lbzCi-9" value="" style="edgeStyle=orthogonalEdgeStyle;rounded=0;orthogonalLoop=1;jettySize=auto;html=1;" edge="1" parent="aSV1qzU1Hw4xgHWF6KSb-19" source="aSV1qzU1Hw4xgHWF6KSb-83" target="C-tCBTNLucwurh1lbzCi-7">
          <mxGeometry relative="1" as="geometry" />
        </mxCell>
        <mxCell id="aSV1qzU1Hw4xgHWF6KSb-83" value="User allocates&amp;nbsp;&lt;span style=&quot;background-color: transparent; color: light-dark(rgb(0, 0, 0), rgb(255, 255, 255));&quot;&gt;field&lt;/span&gt;" style="rounded=1;whiteSpace=wrap;html=1;shadow=0;comic=0;labelBackgroundColor=none;strokeWidth=1;fontFamily=Verdana;fontSize=12;align=center;arcSize=50;" parent="aSV1qzU1Hw4xgHWF6KSb-19" vertex="1">
          <mxGeometry x="105" y="199" width="100" height="30" as="geometry" />
        </mxCell>
        <mxCell id="C-tCBTNLucwurh1lbzCi-12" value="" style="edgeStyle=orthogonalEdgeStyle;rounded=0;orthogonalLoop=1;jettySize=auto;html=1;" edge="1" parent="aSV1qzU1Hw4xgHWF6KSb-19" source="C-tCBTNLucwurh1lbzCi-7">
          <mxGeometry relative="1" as="geometry">
            <mxPoint x="59.99999999999999" y="389" as="targetPoint" />
          </mxGeometry>
        </mxCell>
        <mxCell id="C-tCBTNLucwurh1lbzCi-7" value="What is&amp;nbsp;&lt;div&gt;field&lt;/div&gt;&lt;div&gt;type?&lt;/div&gt;" style="strokeWidth=2;html=1;shape=mxgraph.flowchart.decision;whiteSpace=wrap;" vertex="1" parent="aSV1qzU1Hw4xgHWF6KSb-19">
          <mxGeometry x="115" y="259" width="80" height="80" as="geometry" />
        </mxCell>
        <mxCell id="C-tCBTNLucwurh1lbzCi-15" value="Dict" style="text;html=1;align=center;verticalAlign=middle;whiteSpace=wrap;rounded=0;" vertex="1" parent="aSV1qzU1Hw4xgHWF6KSb-19">
          <mxGeometry x="175" y="269" width="60" height="30" as="geometry" />
        </mxCell>
        <mxCell id="C-tCBTNLucwurh1lbzCi-16" value="Int" style="text;html=1;align=center;verticalAlign=middle;whiteSpace=wrap;rounded=0;" vertex="1" parent="aSV1qzU1Hw4xgHWF6KSb-19">
          <mxGeometry x="75" y="269" width="60" height="30" as="geometry" />
        </mxCell>
        <mxCell id="C-tCBTNLucwurh1lbzCi-19" value="Str" style="text;html=1;align=center;verticalAlign=middle;whiteSpace=wrap;rounded=0;" vertex="1" parent="aSV1qzU1Hw4xgHWF6KSb-19">
          <mxGeometry x="75" y="299" width="60" height="30" as="geometry" />
        </mxCell>
        <mxCell id="C-tCBTNLucwurh1lbzCi-21" value="Arr" style="text;html=1;align=center;verticalAlign=middle;whiteSpace=wrap;rounded=0;" vertex="1" parent="aSV1qzU1Hw4xgHWF6KSb-19">
          <mxGeometry x="175" y="299" width="60" height="30" as="geometry" />
        </mxCell>
        <mxCell id="n93ONp_NhbT6M9AS9uRe-43" value="" style="edgeStyle=orthogonalEdgeStyle;rounded=0;orthogonalLoop=1;jettySize=auto;html=1;" edge="1" parent="aSV1qzU1Hw4xgHWF6KSb-19" source="C-tCBTNLucwurh1lbzCi-23" target="n93ONp_NhbT6M9AS9uRe-42">
          <mxGeometry relative="1" as="geometry" />
        </mxCell>
        <mxCell id="C-tCBTNLucwurh1lbzCi-23" value="User passes value&amp;nbsp;" style="rounded=1;whiteSpace=wrap;html=1;shadow=0;comic=0;labelBackgroundColor=none;strokeWidth=1;fontFamily=Verdana;fontSize=12;align=center;arcSize=50;" vertex="1" parent="aSV1qzU1Hw4xgHWF6KSb-19">
          <mxGeometry x="19.740000000000002" y="390" width="85.26" height="50" as="geometry" />
        </mxCell>
        <mxCell id="n93ONp_NhbT6M9AS9uRe-60" value="" style="edgeStyle=orthogonalEdgeStyle;rounded=0;orthogonalLoop=1;jettySize=auto;html=1;entryX=0.5;entryY=0;entryDx=0;entryDy=0;entryPerimeter=0;" edge="1" parent="aSV1qzU1Hw4xgHWF6KSb-19" source="C-tCBTNLucwurh1lbzCi-25" target="n93ONp_NhbT6M9AS9uRe-42">
          <mxGeometry relative="1" as="geometry">
            <mxPoint x="247.6300000000001" y="545" as="targetPoint" />
            <Array as="points">
              <mxPoint x="248" y="460" />
              <mxPoint x="62" y="460" />
            </Array>
          </mxGeometry>
        </mxCell>
        <mxCell id="C-tCBTNLucwurh1lbzCi-25" value="Value is NULL" style="rounded=1;whiteSpace=wrap;html=1;shadow=0;comic=0;labelBackgroundColor=none;strokeWidth=1;fontFamily=Verdana;fontSize=12;align=center;arcSize=50;" vertex="1" parent="aSV1qzU1Hw4xgHWF6KSb-19">
          <mxGeometry x="205" y="390" width="85.26" height="50" as="geometry" />
        </mxCell>
        <mxCell id="n93ONp_NhbT6M9AS9uRe-1" value="" style="edgeStyle=orthogonalEdgeStyle;rounded=0;orthogonalLoop=1;jettySize=auto;html=1;" edge="1" parent="aSV1qzU1Hw4xgHWF6KSb-19">
          <mxGeometry relative="1" as="geometry">
            <mxPoint x="195" y="299.00380952380965" as="sourcePoint" />
            <mxPoint x="250" y="389.00380952380965" as="targetPoint" />
          </mxGeometry>
        </mxCell>
        <mxCell id="n93ONp_NhbT6M9AS9uRe-118" value="" style="edgeStyle=orthogonalEdgeStyle;rounded=0;orthogonalLoop=1;jettySize=auto;html=1;entryX=0.5;entryY=0;entryDx=0;entryDy=0;entryPerimeter=0;" edge="1" parent="aSV1qzU1Hw4xgHWF6KSb-19" source="n93ONp_NhbT6M9AS9uRe-10" target="n93ONp_NhbT6M9AS9uRe-51">
          <mxGeometry relative="1" as="geometry">
            <mxPoint x="62.375" y="780" as="targetPoint" />
            <Array as="points">
              <mxPoint x="62" y="730" />
              <mxPoint x="191" y="730" />
            </Array>
          </mxGeometry>
        </mxCell>
        <mxCell id="n93ONp_NhbT6M9AS9uRe-10" value="User add the field to dict or arr field value.&amp;nbsp;" style="rounded=1;whiteSpace=wrap;html=1;shadow=0;comic=0;labelBackgroundColor=none;strokeWidth=1;fontFamily=Verdana;fontSize=12;align=center;arcSize=50;" vertex="1" parent="aSV1qzU1Hw4xgHWF6KSb-19">
          <mxGeometry x="6.19" y="640" width="112.37" height="40" as="geometry" />
        </mxCell>
        <mxCell id="n93ONp_NhbT6M9AS9uRe-44" value="" style="edgeStyle=orthogonalEdgeStyle;rounded=0;orthogonalLoop=1;jettySize=auto;html=1;" edge="1" parent="aSV1qzU1Hw4xgHWF6KSb-19" source="n93ONp_NhbT6M9AS9uRe-42" target="n93ONp_NhbT6M9AS9uRe-10">
          <mxGeometry relative="1" as="geometry" />
        </mxCell>
        <mxCell id="n93ONp_NhbT6M9AS9uRe-42" value="Is field&lt;div&gt;&amp;nbsp;part&amp;nbsp;&lt;span style=&quot;background-color: transparent; color: light-dark(rgb(0, 0, 0), rgb(255, 255, 255));&quot;&gt;of&amp;nbsp;&lt;/span&gt;&lt;span style=&quot;background-color: transparent; color: light-dark(rgb(0, 0, 0), rgb(255, 255, 255));&quot;&gt;Dict&lt;/span&gt;&lt;/div&gt;&lt;div&gt;&lt;span style=&quot;background-color: transparent; color: light-dark(rgb(0, 0, 0), rgb(255, 255, 255));&quot;&gt;&amp;nbsp;or&amp;nbsp;&lt;/span&gt;&lt;span style=&quot;background-color: transparent; color: light-dark(rgb(0, 0, 0), rgb(255, 255, 255));&quot;&gt;Arr?&lt;/span&gt;&lt;/div&gt;" style="strokeWidth=2;html=1;shape=mxgraph.flowchart.decision;whiteSpace=wrap;" vertex="1" parent="aSV1qzU1Hw4xgHWF6KSb-19">
          <mxGeometry x="18.560000000000002" y="500" width="87.63" height="100" as="geometry" />
        </mxCell>
        <mxCell id="n93ONp_NhbT6M9AS9uRe-45" value="Yes" style="text;html=1;align=center;verticalAlign=middle;whiteSpace=wrap;rounded=0;" vertex="1" parent="aSV1qzU1Hw4xgHWF6KSb-19">
          <mxGeometry x="46.190000000000055" y="590" width="60" height="30" as="geometry" />
        </mxCell>
        <mxCell id="n93ONp_NhbT6M9AS9uRe-53" value="" style="edgeStyle=orthogonalEdgeStyle;rounded=0;orthogonalLoop=1;jettySize=auto;html=1;entryX=1;entryY=0.5;entryDx=0;entryDy=0;" edge="1" parent="aSV1qzU1Hw4xgHWF6KSb-19" source="n93ONp_NhbT6M9AS9uRe-51" target="aSV1qzU1Hw4xgHWF6KSb-83">
          <mxGeometry relative="1" as="geometry">
            <mxPoint x="351.17999999999984" y="810" as="targetPoint" />
            <Array as="points">
              <mxPoint x="320" y="810" />
              <mxPoint x="320" y="214" />
            </Array>
          </mxGeometry>
        </mxCell>
        <mxCell id="n93ONp_NhbT6M9AS9uRe-56" value="" style="edgeStyle=orthogonalEdgeStyle;rounded=0;orthogonalLoop=1;jettySize=auto;html=1;" edge="1" parent="aSV1qzU1Hw4xgHWF6KSb-19" source="n93ONp_NhbT6M9AS9uRe-51" target="n93ONp_NhbT6M9AS9uRe-55">
          <mxGeometry relative="1" as="geometry" />
        </mxCell>
        <mxCell id="n93ONp_NhbT6M9AS9uRe-51" value="&lt;div&gt;&lt;span style=&quot;background-color: transparent; color: light-dark(rgb(0, 0, 0), rgb(255, 255, 255));&quot;&gt;Add more&lt;/span&gt;&lt;/div&gt;&lt;div&gt;&lt;span style=&quot;background-color: transparent; color: light-dark(rgb(0, 0, 0), rgb(255, 255, 255));&quot;&gt;fields to&amp;nbsp;&lt;/span&gt;&lt;/div&gt;&lt;div&gt;&lt;span style=&quot;background-color: transparent; color: light-dark(rgb(0, 0, 0), rgb(255, 255, 255));&quot;&gt;config?&lt;/span&gt;&lt;/div&gt;" style="strokeWidth=2;html=1;shape=mxgraph.flowchart.decision;whiteSpace=wrap;" vertex="1" parent="aSV1qzU1Hw4xgHWF6KSb-19">
          <mxGeometry x="151.17999999999995" y="770" width="80" height="80" as="geometry" />
        </mxCell>
        <mxCell id="n93ONp_NhbT6M9AS9uRe-54" value="Yes" style="text;html=1;align=center;verticalAlign=middle;whiteSpace=wrap;rounded=0;" vertex="1" parent="aSV1qzU1Hw4xgHWF6KSb-19">
          <mxGeometry x="217.6300000000001" y="780" width="60" height="30" as="geometry" />
        </mxCell>
        <mxCell id="n93ONp_NhbT6M9AS9uRe-55" value="Config created" style="rounded=1;whiteSpace=wrap;html=1;shadow=0;comic=0;labelBackgroundColor=none;strokeWidth=1;fontFamily=Verdana;fontSize=12;align=center;arcSize=50;" vertex="1" parent="aSV1qzU1Hw4xgHWF6KSb-19">
          <mxGeometry x="134.99" y="890" width="112.37" height="40" as="geometry" />
        </mxCell>
        <mxCell id="n93ONp_NhbT6M9AS9uRe-57" value="No" style="text;html=1;align=center;verticalAlign=middle;whiteSpace=wrap;rounded=0;" vertex="1" parent="aSV1qzU1Hw4xgHWF6KSb-19">
          <mxGeometry x="187.36000000000013" y="840" width="60" height="30" as="geometry" />
        </mxCell>
        <mxCell id="n93ONp_NhbT6M9AS9uRe-58" value="No" style="text;html=1;align=center;verticalAlign=middle;whiteSpace=wrap;rounded=0;" vertex="1" parent="aSV1qzU1Hw4xgHWF6KSb-19">
          <mxGeometry x="80.00000000000011" y="520" width="60" height="30" as="geometry" />
        </mxCell>
        <mxCell id="n93ONp_NhbT6M9AS9uRe-119" value="" style="edgeStyle=orthogonalEdgeStyle;rounded=0;orthogonalLoop=1;jettySize=auto;html=1;entryX=0.5;entryY=0;entryDx=0;entryDy=0;entryPerimeter=0;" edge="1" parent="aSV1qzU1Hw4xgHWF6KSb-19" source="n93ONp_NhbT6M9AS9uRe-115" target="n93ONp_NhbT6M9AS9uRe-51">
          <mxGeometry relative="1" as="geometry">
            <Array as="points">
              <mxPoint x="191" y="700" />
              <mxPoint x="191" y="700" />
            </Array>
          </mxGeometry>
        </mxCell>
        <mxCell id="n93ONp_NhbT6M9AS9uRe-115" value="User add the field to&amp;nbsp;&lt;div&gt;config.&amp;nbsp;&lt;/div&gt;" style="rounded=1;whiteSpace=wrap;html=1;shadow=0;comic=0;labelBackgroundColor=none;strokeWidth=1;fontFamily=Verdana;fontSize=12;align=center;arcSize=50;" vertex="1" parent="aSV1qzU1Hw4xgHWF6KSb-19">
          <mxGeometry x="140" y="640" width="112.37" height="40" as="geometry" />
        </mxCell>
        <mxCell id="n93ONp_NhbT6M9AS9uRe-116" value="" style="endArrow=classic;html=1;rounded=0;exitX=0.389;exitY=1.016;exitDx=0;exitDy=0;exitPerimeter=0;entryX=0.533;entryY=0.007;entryDx=0;entryDy=0;entryPerimeter=0;" edge="1" parent="aSV1qzU1Hw4xgHWF6KSb-19" source="n93ONp_NhbT6M9AS9uRe-58" target="n93ONp_NhbT6M9AS9uRe-115">
          <mxGeometry width="50" height="50" relative="1" as="geometry">
            <mxPoint x="190" y="560" as="sourcePoint" />
            <mxPoint x="200" y="637" as="targetPoint" />
            <Array as="points">
              <mxPoint x="200" y="550" />
            </Array>
          </mxGeometry>
        </mxCell>
        <mxCell id="n93ONp_NhbT6M9AS9uRe-14" value="Parse config" style="swimlane;html=1;startSize=20;" vertex="1" parent="aSV1qzU1Hw4xgHWF6KSb-18">
          <mxGeometry x="370" y="20" width="363.56" height="1070" as="geometry" />
        </mxCell>
        <mxCell id="n93ONp_NhbT6M9AS9uRe-7" value="&lt;div&gt;&lt;br&gt;&lt;/div&gt;So there is no&amp;nbsp;&lt;div&gt;need for querying config to receive values.&amp;nbsp;&lt;/div&gt;" style="ellipse;shape=cloud;whiteSpace=wrap;html=1;" vertex="1" parent="n93ONp_NhbT6M9AS9uRe-14">
          <mxGeometry x="190" y="350" width="120" height="100" as="geometry" />
        </mxCell>
        <mxCell id="n93ONp_NhbT6M9AS9uRe-73" value="" style="edgeStyle=orthogonalEdgeStyle;rounded=0;orthogonalLoop=1;jettySize=auto;html=1;entryX=0.5;entryY=0;entryDx=0;entryDy=0;" edge="1" parent="n93ONp_NhbT6M9AS9uRe-14" source="n93ONp_NhbT6M9AS9uRe-61" target="n93ONp_NhbT6M9AS9uRe-67">
          <mxGeometry relative="1" as="geometry" />
        </mxCell>
        <mxCell id="n93ONp_NhbT6M9AS9uRe-61" value="User parse config" style="rounded=1;whiteSpace=wrap;html=1;shadow=0;comic=0;labelBackgroundColor=none;strokeWidth=1;fontFamily=Verdana;fontSize=12;align=center;arcSize=50;" vertex="1" parent="n93ONp_NhbT6M9AS9uRe-14">
          <mxGeometry x="128.82000000000016" y="50" width="112.37" height="40" as="geometry" />
        </mxCell>
        <mxCell id="n93ONp_NhbT6M9AS9uRe-72" value="" style="edgeStyle=orthogonalEdgeStyle;rounded=0;orthogonalLoop=1;jettySize=auto;html=1;" edge="1" parent="n93ONp_NhbT6M9AS9uRe-14" source="n93ONp_NhbT6M9AS9uRe-67" target="n93ONp_NhbT6M9AS9uRe-69">
          <mxGeometry relative="1" as="geometry" />
        </mxCell>
        <mxCell id="n93ONp_NhbT6M9AS9uRe-67" value="Lib find supported&lt;div&gt;config file&lt;/div&gt;" style="rounded=1;whiteSpace=wrap;html=1;shadow=0;comic=0;labelBackgroundColor=none;strokeWidth=1;fontFamily=Verdana;fontSize=12;align=center;arcSize=50;" vertex="1" parent="n93ONp_NhbT6M9AS9uRe-14">
          <mxGeometry x="135" y="130" width="100" height="30" as="geometry" />
        </mxCell>
        <mxCell id="n93ONp_NhbT6M9AS9uRe-69" value="Lib parse&lt;div&gt;config file&lt;/div&gt;" style="rounded=1;whiteSpace=wrap;html=1;shadow=0;comic=0;labelBackgroundColor=none;strokeWidth=1;fontFamily=Verdana;fontSize=12;align=center;arcSize=50;" vertex="1" parent="n93ONp_NhbT6M9AS9uRe-14">
          <mxGeometry x="135" y="200" width="100" height="30" as="geometry" />
        </mxCell>
        <mxCell id="n93ONp_NhbT6M9AS9uRe-6" value="&lt;div&gt;&lt;br&gt;&lt;/div&gt;Every time user&lt;div&gt;allocates new&amp;nbsp;&lt;/div&gt;&lt;div&gt;field he/she&lt;/div&gt;&lt;div&gt;receives it&#39;s&amp;nbsp;&lt;/div&gt;&lt;div&gt;pointer&lt;span style=&quot;background-color: transparent; color: light-dark(rgb(0, 0, 0), rgb(255, 255, 255));&quot;&gt;.&lt;/span&gt;&lt;/div&gt;" style="ellipse;shape=cloud;whiteSpace=wrap;html=1;" vertex="1" parent="n93ONp_NhbT6M9AS9uRe-14">
          <mxGeometry x="170" y="260" width="130" height="120" as="geometry" />
        </mxCell>
        <mxCell id="n93ONp_NhbT6M9AS9uRe-63" value="" style="edgeStyle=orthogonalEdgeStyle;rounded=0;orthogonalLoop=1;jettySize=auto;html=1;entryX=0;entryY=0.5;entryDx=0;entryDy=0;" edge="1" parent="aSV1qzU1Hw4xgHWF6KSb-18" source="n93ONp_NhbT6M9AS9uRe-55" target="n93ONp_NhbT6M9AS9uRe-61">
          <mxGeometry relative="1" as="geometry">
            <mxPoint x="383.5450000000001" y="930" as="targetPoint" />
            <Array as="points">
              <mxPoint x="400" y="930" />
              <mxPoint x="400" y="90" />
            </Array>
          </mxGeometry>
        </mxCell>
        <mxCell id="n93ONp_NhbT6M9AS9uRe-74" value="Use config" style="swimlane;html=1;startSize=20;" vertex="1" parent="aSV1qzU1Hw4xgHWF6KSb-18">
          <mxGeometry x="733.56" y="20" width="396.44" height="1070" as="geometry" />
        </mxCell>
        <mxCell id="n93ONp_NhbT6M9AS9uRe-75" value="" style="edgeStyle=orthogonalEdgeStyle;rounded=0;orthogonalLoop=1;jettySize=auto;html=1;entryX=0.5;entryY=0;entryDx=0;entryDy=0;entryPerimeter=0;" edge="1" parent="n93ONp_NhbT6M9AS9uRe-74" source="n93ONp_NhbT6M9AS9uRe-76" target="n93ONp_NhbT6M9AS9uRe-84">
          <mxGeometry relative="1" as="geometry">
            <mxPoint x="185" y="130" as="targetPoint" />
          </mxGeometry>
        </mxCell>
        <mxCell id="n93ONp_NhbT6M9AS9uRe-76" value="User get &lt;span style=&quot;background-color: transparent; color: light-dark(rgb(0, 0, 0), rgb(255, 255, 255));&quot;&gt;field&#39;s value&lt;/span&gt;" style="rounded=1;whiteSpace=wrap;html=1;shadow=0;comic=0;labelBackgroundColor=none;strokeWidth=1;fontFamily=Verdana;fontSize=12;align=center;arcSize=50;" vertex="1" parent="n93ONp_NhbT6M9AS9uRe-74">
          <mxGeometry x="125.60000000000016" y="50" width="112.37" height="40" as="geometry" />
        </mxCell>
        <mxCell id="n93ONp_NhbT6M9AS9uRe-94" value="" style="edgeStyle=orthogonalEdgeStyle;rounded=0;orthogonalLoop=1;jettySize=auto;html=1;exitX=0.719;exitY=0.77;exitDx=0;exitDy=0;exitPerimeter=0;entryX=0.5;entryY=0;entryDx=0;entryDy=0;" edge="1" parent="n93ONp_NhbT6M9AS9uRe-74" source="n93ONp_NhbT6M9AS9uRe-84" target="n93ONp_NhbT6M9AS9uRe-93">
          <mxGeometry relative="1" as="geometry">
            <Array as="points">
              <mxPoint x="199" y="353" />
              <mxPoint x="233" y="353" />
              <mxPoint x="233" y="450" />
            </Array>
          </mxGeometry>
        </mxCell>
        <mxCell id="n93ONp_NhbT6M9AS9uRe-84" value="What is&amp;nbsp;&lt;div&gt;field&lt;/div&gt;&lt;div&gt;type?&lt;/div&gt;" style="strokeWidth=2;html=1;shape=mxgraph.flowchart.decision;whiteSpace=wrap;" vertex="1" parent="n93ONp_NhbT6M9AS9uRe-74">
          <mxGeometry x="141.78" y="290" width="80" height="80" as="geometry" />
        </mxCell>
        <mxCell id="n93ONp_NhbT6M9AS9uRe-89" value="" style="endArrow=classic;html=1;rounded=0;" edge="1" parent="n93ONp_NhbT6M9AS9uRe-74">
          <mxGeometry width="50" height="50" relative="1" as="geometry">
            <mxPoint x="223.22000000000006" y="330" as="sourcePoint" />
            <mxPoint x="303.2200000000001" y="380" as="targetPoint" />
            <Array as="points">
              <mxPoint x="303.2200000000001" y="330" />
            </Array>
          </mxGeometry>
        </mxCell>
        <mxCell id="n93ONp_NhbT6M9AS9uRe-105" value="" style="edgeStyle=orthogonalEdgeStyle;rounded=0;orthogonalLoop=1;jettySize=auto;html=1;entryX=0.5;entryY=0;entryDx=0;entryDy=0;" edge="1" parent="n93ONp_NhbT6M9AS9uRe-74" source="n93ONp_NhbT6M9AS9uRe-90">
          <mxGeometry relative="1" as="geometry">
            <mxPoint x="173.21999999999935" y="770.0000000000005" as="targetPoint" />
            <Array as="points">
              <mxPoint x="302" y="670" />
              <mxPoint x="173" y="670" />
            </Array>
          </mxGeometry>
        </mxCell>
        <mxCell id="n93ONp_NhbT6M9AS9uRe-90" value="get_dict_field&lt;div&gt;or&lt;/div&gt;&lt;div&gt;dict_foreach&lt;/div&gt;" style="rounded=1;whiteSpace=wrap;html=1;shadow=0;comic=0;labelBackgroundColor=none;strokeWidth=1;fontFamily=Verdana;fontSize=12;align=center;arcSize=50;" vertex="1" parent="n93ONp_NhbT6M9AS9uRe-74">
          <mxGeometry x="247.97" y="380" width="108.81" height="50" as="geometry" />
        </mxCell>
        <mxCell id="n93ONp_NhbT6M9AS9uRe-91" value="Dict" style="text;html=1;align=center;verticalAlign=middle;whiteSpace=wrap;rounded=0;" vertex="1" parent="n93ONp_NhbT6M9AS9uRe-74">
          <mxGeometry x="203.22000000000006" y="310" width="60" height="30" as="geometry" />
        </mxCell>
        <mxCell id="n93ONp_NhbT6M9AS9uRe-107" value="" style="edgeStyle=orthogonalEdgeStyle;rounded=0;orthogonalLoop=1;jettySize=auto;html=1;entryX=0.5;entryY=0;entryDx=0;entryDy=0;" edge="1" parent="n93ONp_NhbT6M9AS9uRe-74" source="n93ONp_NhbT6M9AS9uRe-93">
          <mxGeometry relative="1" as="geometry">
            <mxPoint x="173.21999999999935" y="770.0000000000005" as="targetPoint" />
            <Array as="points">
              <mxPoint x="233" y="670" />
              <mxPoint x="173" y="670" />
            </Array>
          </mxGeometry>
        </mxCell>
        <mxCell id="n93ONp_NhbT6M9AS9uRe-93" value="get_array_field&lt;div&gt;or&lt;/div&gt;&lt;div&gt;array_foreach&lt;/div&gt;" style="rounded=1;whiteSpace=wrap;html=1;shadow=0;comic=0;labelBackgroundColor=none;strokeWidth=1;fontFamily=Verdana;fontSize=12;align=center;arcSize=50;" vertex="1" parent="n93ONp_NhbT6M9AS9uRe-74">
          <mxGeometry x="178.82000000000005" y="450" width="108.81" height="50" as="geometry" />
        </mxCell>
        <mxCell id="n93ONp_NhbT6M9AS9uRe-95" value="Arr" style="text;html=1;align=center;verticalAlign=middle;whiteSpace=wrap;rounded=0;" vertex="1" parent="n93ONp_NhbT6M9AS9uRe-74">
          <mxGeometry x="188.22000000000006" y="330" width="60" height="30" as="geometry" />
        </mxCell>
        <mxCell id="n93ONp_NhbT6M9AS9uRe-110" value="" style="edgeStyle=orthogonalEdgeStyle;rounded=0;orthogonalLoop=1;jettySize=auto;html=1;entryX=0.5;entryY=0;entryDx=0;entryDy=0;" edge="1" parent="n93ONp_NhbT6M9AS9uRe-74" source="n93ONp_NhbT6M9AS9uRe-97">
          <mxGeometry relative="1" as="geometry">
            <mxPoint x="173.21999999999935" y="770.0000000000005" as="targetPoint" />
            <Array as="points">
              <mxPoint x="55.78" y="670" />
              <mxPoint x="172.78" y="670" />
            </Array>
          </mxGeometry>
        </mxCell>
        <mxCell id="n93ONp_NhbT6M9AS9uRe-97" value="get_str" style="rounded=1;whiteSpace=wrap;html=1;shadow=0;comic=0;labelBackgroundColor=none;strokeWidth=1;fontFamily=Verdana;fontSize=12;align=center;arcSize=50;" vertex="1" parent="n93ONp_NhbT6M9AS9uRe-74">
          <mxGeometry x="13.219999999999999" y="390" width="85.25" height="50" as="geometry" />
        </mxCell>
        <mxCell id="n93ONp_NhbT6M9AS9uRe-98" value="" style="endArrow=classic;html=1;rounded=0;entryX=0.568;entryY=0.01;entryDx=0;entryDy=0;entryPerimeter=0;" edge="1" parent="n93ONp_NhbT6M9AS9uRe-74" target="n93ONp_NhbT6M9AS9uRe-97">
          <mxGeometry width="50" height="50" relative="1" as="geometry">
            <mxPoint x="141.78000000000006" y="330" as="sourcePoint" />
            <mxPoint x="61.78000000000006" y="380" as="targetPoint" />
            <Array as="points">
              <mxPoint x="61.78000000000006" y="330" />
            </Array>
          </mxGeometry>
        </mxCell>
        <mxCell id="n93ONp_NhbT6M9AS9uRe-99" value="Str" style="text;html=1;align=center;verticalAlign=middle;whiteSpace=wrap;rounded=0;" vertex="1" parent="n93ONp_NhbT6M9AS9uRe-74">
          <mxGeometry x="98.47000000000006" y="310" width="60" height="30" as="geometry" />
        </mxCell>
        <mxCell id="n93ONp_NhbT6M9AS9uRe-100" value="" style="edgeStyle=orthogonalEdgeStyle;rounded=0;orthogonalLoop=1;jettySize=auto;html=1;exitX=0.964;exitY=0.769;exitDx=0;exitDy=0;exitPerimeter=0;entryX=0.5;entryY=0;entryDx=0;entryDy=0;" edge="1" parent="n93ONp_NhbT6M9AS9uRe-74" source="n93ONp_NhbT6M9AS9uRe-102" target="n93ONp_NhbT6M9AS9uRe-101">
          <mxGeometry relative="1" as="geometry">
            <mxPoint x="158.47000000000097" y="353" as="sourcePoint" />
            <mxPoint x="126.47000000000097" y="450" as="targetPoint" />
            <Array as="points">
              <mxPoint x="124" y="353" />
              <mxPoint x="124" y="450" />
              <mxPoint x="124" y="450" />
            </Array>
          </mxGeometry>
        </mxCell>
        <mxCell id="n93ONp_NhbT6M9AS9uRe-109" value="" style="edgeStyle=orthogonalEdgeStyle;rounded=0;orthogonalLoop=1;jettySize=auto;html=1;entryX=0.5;entryY=0;entryDx=0;entryDy=0;" edge="1" parent="n93ONp_NhbT6M9AS9uRe-74" source="n93ONp_NhbT6M9AS9uRe-101">
          <mxGeometry relative="1" as="geometry">
            <mxPoint x="173.21999999999935" y="770.0000000000005" as="targetPoint" />
          </mxGeometry>
        </mxCell>
        <mxCell id="n93ONp_NhbT6M9AS9uRe-101" value="get_int" style="rounded=1;whiteSpace=wrap;html=1;shadow=0;comic=0;labelBackgroundColor=none;strokeWidth=1;fontFamily=Verdana;fontSize=12;align=center;arcSize=50;" vertex="1" parent="n93ONp_NhbT6M9AS9uRe-74">
          <mxGeometry x="70.01000000000002" y="520" width="108.81" height="50" as="geometry" />
        </mxCell>
        <mxCell id="n93ONp_NhbT6M9AS9uRe-102" value="Int" style="text;html=1;align=center;verticalAlign=middle;whiteSpace=wrap;rounded=0;" vertex="1" parent="n93ONp_NhbT6M9AS9uRe-74">
          <mxGeometry x="108.47000000000006" y="330" width="60" height="30" as="geometry" />
        </mxCell>
        <mxCell id="n93ONp_NhbT6M9AS9uRe-113" value="" style="edgeStyle=orthogonalEdgeStyle;rounded=0;orthogonalLoop=1;jettySize=auto;html=1;entryX=1;entryY=0.5;entryDx=0;entryDy=0;" edge="1" parent="n93ONp_NhbT6M9AS9uRe-74" source="n93ONp_NhbT6M9AS9uRe-111" target="n93ONp_NhbT6M9AS9uRe-76">
          <mxGeometry relative="1" as="geometry">
            <mxPoint x="339.65999999999985" y="810" as="targetPoint" />
            <Array as="points">
              <mxPoint x="376" y="810" />
              <mxPoint x="376" y="70" />
            </Array>
          </mxGeometry>
        </mxCell>
        <mxCell id="n93ONp_NhbT6M9AS9uRe-120" value="" style="edgeStyle=orthogonalEdgeStyle;rounded=0;orthogonalLoop=1;jettySize=auto;html=1;" edge="1" parent="n93ONp_NhbT6M9AS9uRe-74" source="n93ONp_NhbT6M9AS9uRe-111" target="n93ONp_NhbT6M9AS9uRe-114">
          <mxGeometry relative="1" as="geometry" />
        </mxCell>
        <mxCell id="n93ONp_NhbT6M9AS9uRe-111" value="&lt;div&gt;&lt;span style=&quot;background-color: transparent; color: light-dark(rgb(0, 0, 0), rgb(255, 255, 255));&quot;&gt;Get&amp;nbsp;&lt;/span&gt;&lt;/div&gt;&lt;div&gt;&lt;span style=&quot;background-color: transparent; color: light-dark(rgb(0, 0, 0), rgb(255, 255, 255));&quot;&gt;another&lt;/span&gt;&lt;/div&gt;&lt;div&gt;&lt;span style=&quot;background-color: transparent; color: light-dark(rgb(0, 0, 0), rgb(255, 255, 255));&quot;&gt;value from&lt;/span&gt;&lt;/div&gt;&lt;div&gt;&lt;span style=&quot;background-color: transparent; color: light-dark(rgb(0, 0, 0), rgb(255, 255, 255));&quot;&gt;fields&lt;/span&gt;&lt;span style=&quot;background-color: transparent; color: light-dark(rgb(0, 0, 0), rgb(255, 255, 255));&quot;&gt;?&lt;/span&gt;&lt;/div&gt;" style="strokeWidth=2;html=1;shape=mxgraph.flowchart.decision;whiteSpace=wrap;" vertex="1" parent="n93ONp_NhbT6M9AS9uRe-74">
          <mxGeometry x="130" y="770" width="86.44" height="80" as="geometry" />
        </mxCell>
        <mxCell id="n93ONp_NhbT6M9AS9uRe-122" value="" style="edgeStyle=orthogonalEdgeStyle;rounded=0;orthogonalLoop=1;jettySize=auto;html=1;" edge="1" parent="n93ONp_NhbT6M9AS9uRe-74" source="n93ONp_NhbT6M9AS9uRe-114" target="n93ONp_NhbT6M9AS9uRe-121">
          <mxGeometry relative="1" as="geometry" />
        </mxCell>
        <mxCell id="n93ONp_NhbT6M9AS9uRe-114" value="User destroys config" style="rounded=1;whiteSpace=wrap;html=1;shadow=0;comic=0;labelBackgroundColor=none;strokeWidth=1;fontFamily=Verdana;fontSize=12;align=center;arcSize=50;" vertex="1" parent="n93ONp_NhbT6M9AS9uRe-74">
          <mxGeometry x="117.04000000000008" y="900" width="112.37" height="40" as="geometry" />
        </mxCell>
        <mxCell id="n93ONp_NhbT6M9AS9uRe-121" value="" style="ellipse;html=1;shape=endState;fillColor=#000000;strokeColor=#ff0000;" vertex="1" parent="n93ONp_NhbT6M9AS9uRe-74">
          <mxGeometry x="158.44000000000005" y="1000" width="30" height="30" as="geometry" />
        </mxCell>
        <mxCell id="n93ONp_NhbT6M9AS9uRe-123" value="Yes" style="text;html=1;align=center;verticalAlign=middle;whiteSpace=wrap;rounded=0;" vertex="1" parent="n93ONp_NhbT6M9AS9uRe-74">
          <mxGeometry x="196.44000000000005" y="780" width="60" height="30" as="geometry" />
        </mxCell>
        <mxCell id="n93ONp_NhbT6M9AS9uRe-124" value="No" style="text;html=1;align=center;verticalAlign=middle;whiteSpace=wrap;rounded=0;" vertex="1" parent="n93ONp_NhbT6M9AS9uRe-74">
          <mxGeometry x="161.7800000000002" y="840" width="60" height="30" as="geometry" />
        </mxCell>
        <mxCell id="n93ONp_NhbT6M9AS9uRe-87" value="" style="edgeStyle=orthogonalEdgeStyle;rounded=0;orthogonalLoop=1;jettySize=auto;html=1;entryX=0;entryY=0.5;entryDx=0;entryDy=0;" edge="1" parent="aSV1qzU1Hw4xgHWF6KSb-18" source="n93ONp_NhbT6M9AS9uRe-69" target="n93ONp_NhbT6M9AS9uRe-76">
          <mxGeometry relative="1" as="geometry">
            <Array as="points">
              <mxPoint x="780" y="235" />
              <mxPoint x="780" y="90" />
            </Array>
          </mxGeometry>
        </mxCell>
      </root>
    </mxGraphModel>
  </diagram>
  <diagram id="GPT1PzO8FV5TG_BwS3nW" name="Config representation">
    <mxGraphModel dx="3849" dy="1703" grid="1" gridSize="10" guides="1" tooltips="1" connect="1" arrows="1" fold="1" page="1" pageScale="1" pageWidth="850" pageHeight="1100" math="0" shadow="0">
      <root>
        <mxCell id="0" />
        <mxCell id="1" parent="0" />
        <mxCell id="MBzNhR4zbCW-CWqZMGOD-14" value="" style="edgeStyle=orthogonalEdgeStyle;rounded=0;orthogonalLoop=1;jettySize=auto;html=1;entryX=0.5;entryY=0;entryDx=0;entryDy=0;exitX=0.5;exitY=1;exitDx=0;exitDy=0;curved=1;" edge="1" parent="1" source="MBzNhR4zbCW-CWqZMGOD-2" target="MBzNhR4zbCW-CWqZMGOD-5">
          <mxGeometry relative="1" as="geometry">
            <mxPoint x="385" y="270" as="targetPoint" />
          </mxGeometry>
        </mxCell>
        <mxCell id="MBzNhR4zbCW-CWqZMGOD-16" value="" style="edgeStyle=orthogonalEdgeStyle;rounded=0;orthogonalLoop=1;jettySize=auto;html=1;entryX=0.5;entryY=0;entryDx=0;entryDy=0;exitX=0.5;exitY=1;exitDx=0;exitDy=0;curved=1;" edge="1" parent="1" source="MBzNhR4zbCW-CWqZMGOD-2" target="MBzNhR4zbCW-CWqZMGOD-3">
          <mxGeometry relative="1" as="geometry">
            <mxPoint x="120" y="200" as="targetPoint" />
          </mxGeometry>
        </mxCell>
        <mxCell id="MBzNhR4zbCW-CWqZMGOD-18" value="" style="edgeStyle=orthogonalEdgeStyle;rounded=0;orthogonalLoop=1;jettySize=auto;html=1;entryX=0.5;entryY=0;entryDx=0;entryDy=0;exitX=0.5;exitY=1;exitDx=0;exitDy=0;curved=1;" edge="1" parent="1" source="MBzNhR4zbCW-CWqZMGOD-2" target="MBzNhR4zbCW-CWqZMGOD-6">
          <mxGeometry relative="1" as="geometry">
            <mxPoint x="385" y="-50" as="targetPoint" />
          </mxGeometry>
        </mxCell>
        <mxCell id="MBzNhR4zbCW-CWqZMGOD-20" value="" style="edgeStyle=orthogonalEdgeStyle;rounded=0;orthogonalLoop=1;jettySize=auto;html=1;entryX=0.5;entryY=0;entryDx=0;entryDy=0;curved=1;" edge="1" parent="1" source="MBzNhR4zbCW-CWqZMGOD-2" target="MBzNhR4zbCW-CWqZMGOD-4">
          <mxGeometry relative="1" as="geometry">
            <mxPoint x="385" y="270" as="targetPoint" />
          </mxGeometry>
        </mxCell>
        <mxCell id="MBzNhR4zbCW-CWqZMGOD-2" value="config root&lt;div&gt;&lt;br&gt;&lt;/div&gt;" style="ellipse;whiteSpace=wrap;html=1;aspect=fixed;" vertex="1" parent="1">
          <mxGeometry x="345" y="70" width="80" height="80" as="geometry" />
        </mxCell>
        <mxCell id="MBzNhR4zbCW-CWqZMGOD-3" value="&lt;div&gt;str field&lt;/div&gt;" style="ellipse;whiteSpace=wrap;html=1;aspect=fixed;fillColor=#d80073;fontColor=#ffffff;strokeColor=#A50040;" vertex="1" parent="1">
          <mxGeometry x="80" y="230" width="80" height="80" as="geometry" />
        </mxCell>
        <mxCell id="MBzNhR4zbCW-CWqZMGOD-4" value="&lt;div&gt;int field&lt;/div&gt;" style="ellipse;whiteSpace=wrap;html=1;aspect=fixed;" vertex="1" parent="1">
          <mxGeometry x="265" y="230" width="80" height="80" as="geometry" />
        </mxCell>
        <mxCell id="MBzNhR4zbCW-CWqZMGOD-21" value="" style="edgeStyle=orthogonalEdgeStyle;rounded=0;orthogonalLoop=1;jettySize=auto;html=1;entryX=0.5;entryY=0;entryDx=0;entryDy=0;curved=1;" edge="1" parent="1" source="MBzNhR4zbCW-CWqZMGOD-5" target="MBzNhR4zbCW-CWqZMGOD-9">
          <mxGeometry relative="1" as="geometry">
            <Array as="points">
              <mxPoint x="490" y="340" />
              <mxPoint x="370" y="340" />
            </Array>
          </mxGeometry>
        </mxCell>
        <mxCell id="MBzNhR4zbCW-CWqZMGOD-22" value="" style="edgeStyle=orthogonalEdgeStyle;rounded=0;orthogonalLoop=1;jettySize=auto;html=1;curved=1;" edge="1" parent="1" source="MBzNhR4zbCW-CWqZMGOD-5" target="MBzNhR4zbCW-CWqZMGOD-11">
          <mxGeometry relative="1" as="geometry" />
        </mxCell>
        <mxCell id="MBzNhR4zbCW-CWqZMGOD-5" value="&lt;div&gt;dict field&lt;/div&gt;" style="ellipse;whiteSpace=wrap;html=1;aspect=fixed;" vertex="1" parent="1">
          <mxGeometry x="450" y="230" width="80" height="80" as="geometry" />
        </mxCell>
        <mxCell id="MBzNhR4zbCW-CWqZMGOD-24" value="" style="edgeStyle=orthogonalEdgeStyle;rounded=0;orthogonalLoop=1;jettySize=auto;html=1;entryX=0.5;entryY=0;entryDx=0;entryDy=0;curved=1;" edge="1" parent="1" source="MBzNhR4zbCW-CWqZMGOD-6" target="MBzNhR4zbCW-CWqZMGOD-12">
          <mxGeometry relative="1" as="geometry">
            <mxPoint x="680" y="430" as="targetPoint" />
            <Array as="points">
              <mxPoint x="680" y="350" />
              <mxPoint x="770" y="350" />
            </Array>
          </mxGeometry>
        </mxCell>
        <mxCell id="MBzNhR4zbCW-CWqZMGOD-6" value="&lt;div&gt;array field&lt;/div&gt;" style="ellipse;whiteSpace=wrap;html=1;aspect=fixed;" vertex="1" parent="1">
          <mxGeometry x="640" y="230" width="80" height="80" as="geometry" />
        </mxCell>
        <mxCell id="MBzNhR4zbCW-CWqZMGOD-7" value="&lt;div&gt;str field&lt;/div&gt;" style="ellipse;whiteSpace=wrap;html=1;aspect=fixed;" vertex="1" parent="1">
          <mxGeometry x="185" y="510" width="80" height="80" as="geometry" />
        </mxCell>
        <mxCell id="MBzNhR4zbCW-CWqZMGOD-8" value="&lt;div&gt;int field&lt;/div&gt;" style="ellipse;whiteSpace=wrap;html=1;aspect=fixed;" vertex="1" parent="1">
          <mxGeometry x="370" y="510" width="80" height="80" as="geometry" />
        </mxCell>
        <mxCell id="MBzNhR4zbCW-CWqZMGOD-25" value="" style="edgeStyle=orthogonalEdgeStyle;rounded=0;orthogonalLoop=1;jettySize=auto;html=1;curved=1;" edge="1" parent="1" source="MBzNhR4zbCW-CWqZMGOD-9" target="MBzNhR4zbCW-CWqZMGOD-8">
          <mxGeometry relative="1" as="geometry" />
        </mxCell>
        <mxCell id="MBzNhR4zbCW-CWqZMGOD-31" value="" style="edgeStyle=orthogonalEdgeStyle;rounded=0;orthogonalLoop=1;jettySize=auto;html=1;entryX=0.5;entryY=0;entryDx=0;entryDy=0;curved=1;" edge="1" parent="1" source="MBzNhR4zbCW-CWqZMGOD-9" target="MBzNhR4zbCW-CWqZMGOD-7">
          <mxGeometry relative="1" as="geometry">
            <mxPoint x="210" y="420" as="targetPoint" />
            <Array as="points">
              <mxPoint x="370" y="480" />
              <mxPoint x="225" y="480" />
            </Array>
          </mxGeometry>
        </mxCell>
        <mxCell id="MBzNhR4zbCW-CWqZMGOD-9" value="&lt;div&gt;dict field&lt;/div&gt;" style="ellipse;whiteSpace=wrap;html=1;aspect=fixed;" vertex="1" parent="1">
          <mxGeometry x="330" y="380" width="80" height="80" as="geometry" />
        </mxCell>
        <mxCell id="MBzNhR4zbCW-CWqZMGOD-28" value="" style="edgeStyle=orthogonalEdgeStyle;rounded=0;orthogonalLoop=1;jettySize=auto;html=1;curved=1;" edge="1" parent="1" source="MBzNhR4zbCW-CWqZMGOD-11" target="MBzNhR4zbCW-CWqZMGOD-26">
          <mxGeometry relative="1" as="geometry" />
        </mxCell>
        <mxCell id="MBzNhR4zbCW-CWqZMGOD-11" value="&lt;div&gt;array field&lt;/div&gt;" style="ellipse;whiteSpace=wrap;html=1;aspect=fixed;" vertex="1" parent="1">
          <mxGeometry x="530" y="380" width="80" height="80" as="geometry" />
        </mxCell>
        <mxCell id="MBzNhR4zbCW-CWqZMGOD-29" value="" style="edgeStyle=orthogonalEdgeStyle;rounded=0;orthogonalLoop=1;jettySize=auto;html=1;curved=1;" edge="1" parent="1" source="MBzNhR4zbCW-CWqZMGOD-12" target="MBzNhR4zbCW-CWqZMGOD-27">
          <mxGeometry relative="1" as="geometry" />
        </mxCell>
        <mxCell id="MBzNhR4zbCW-CWqZMGOD-12" value="&lt;div&gt;array field&lt;/div&gt;" style="ellipse;whiteSpace=wrap;html=1;aspect=fixed;" vertex="1" parent="1">
          <mxGeometry x="730" y="380" width="80" height="80" as="geometry" />
        </mxCell>
        <mxCell id="MBzNhR4zbCW-CWqZMGOD-26" value="&lt;div&gt;int field&lt;/div&gt;" style="ellipse;whiteSpace=wrap;html=1;aspect=fixed;" vertex="1" parent="1">
          <mxGeometry x="530" y="510" width="80" height="80" as="geometry" />
        </mxCell>
        <mxCell id="MBzNhR4zbCW-CWqZMGOD-27" value="&lt;div&gt;str field&lt;/div&gt;" style="ellipse;whiteSpace=wrap;html=1;aspect=fixed;" vertex="1" parent="1">
          <mxGeometry x="730" y="510" width="80" height="80" as="geometry" />
        </mxCell>
        <mxCell id="MBzNhR4zbCW-CWqZMGOD-32" value="&lt;h1 style=&quot;margin-top: 0px;&quot;&gt;Scheme before parsing&lt;/h1&gt;" style="text;html=1;whiteSpace=wrap;overflow=hidden;rounded=0;" vertex="1" parent="1">
          <mxGeometry x="-50" y="40" width="180" height="70" as="geometry" />
        </mxCell>
        <mxCell id="MBzNhR4zbCW-CWqZMGOD-33" value="" style="endArrow=classic;html=1;rounded=0;entryX=0.5;entryY=0;entryDx=0;entryDy=0;" edge="1" parent="1" source="MBzNhR4zbCW-CWqZMGOD-32" target="MBzNhR4zbCW-CWqZMGOD-34">
          <mxGeometry width="50" height="50" relative="1" as="geometry">
            <mxPoint x="20" y="350" as="sourcePoint" />
            <mxPoint x="60" y="910" as="targetPoint" />
          </mxGeometry>
        </mxCell>
        <mxCell id="MBzNhR4zbCW-CWqZMGOD-34" value="&lt;h1 style=&quot;margin-top: 0px;&quot;&gt;Scheme after parsing&lt;/h1&gt;" style="text;html=1;whiteSpace=wrap;overflow=hidden;rounded=0;" vertex="1" parent="1">
          <mxGeometry x="-50" y="720" width="180" height="70" as="geometry" />
        </mxCell>
        <mxCell id="MBzNhR4zbCW-CWqZMGOD-35" value="" style="edgeStyle=orthogonalEdgeStyle;rounded=0;orthogonalLoop=1;jettySize=auto;html=1;entryX=0.5;entryY=0;entryDx=0;entryDy=0;exitX=0.5;exitY=1;exitDx=0;exitDy=0;curved=1;" edge="1" parent="1" source="MBzNhR4zbCW-CWqZMGOD-39" target="MBzNhR4zbCW-CWqZMGOD-44">
          <mxGeometry relative="1" as="geometry">
            <mxPoint x="385" y="950" as="targetPoint" />
          </mxGeometry>
        </mxCell>
        <mxCell id="MBzNhR4zbCW-CWqZMGOD-36" value="" style="edgeStyle=orthogonalEdgeStyle;rounded=0;orthogonalLoop=1;jettySize=auto;html=1;entryX=0.5;entryY=0;entryDx=0;entryDy=0;exitX=0.5;exitY=1;exitDx=0;exitDy=0;curved=1;" edge="1" parent="1" source="MBzNhR4zbCW-CWqZMGOD-39" target="MBzNhR4zbCW-CWqZMGOD-40">
          <mxGeometry relative="1" as="geometry">
            <mxPoint x="120" y="880" as="targetPoint" />
          </mxGeometry>
        </mxCell>
        <mxCell id="MBzNhR4zbCW-CWqZMGOD-37" value="" style="edgeStyle=orthogonalEdgeStyle;rounded=0;orthogonalLoop=1;jettySize=auto;html=1;entryX=0.5;entryY=0;entryDx=0;entryDy=0;exitX=0.5;exitY=1;exitDx=0;exitDy=0;curved=1;" edge="1" parent="1" source="MBzNhR4zbCW-CWqZMGOD-39" target="MBzNhR4zbCW-CWqZMGOD-46">
          <mxGeometry relative="1" as="geometry">
            <mxPoint x="385" y="630" as="targetPoint" />
          </mxGeometry>
        </mxCell>
        <mxCell id="MBzNhR4zbCW-CWqZMGOD-38" value="" style="edgeStyle=orthogonalEdgeStyle;rounded=0;orthogonalLoop=1;jettySize=auto;html=1;entryX=0.5;entryY=0;entryDx=0;entryDy=0;curved=1;" edge="1" parent="1" source="MBzNhR4zbCW-CWqZMGOD-39" target="MBzNhR4zbCW-CWqZMGOD-41">
          <mxGeometry relative="1" as="geometry">
            <mxPoint x="385" y="950" as="targetPoint" />
          </mxGeometry>
        </mxCell>
        <mxCell id="MBzNhR4zbCW-CWqZMGOD-39" value="config root&lt;div&gt;&lt;br&gt;&lt;/div&gt;" style="ellipse;whiteSpace=wrap;html=1;aspect=fixed;" vertex="1" parent="1">
          <mxGeometry x="345" y="750" width="80" height="80" as="geometry" />
        </mxCell>
        <mxCell id="MBzNhR4zbCW-CWqZMGOD-40" value="&lt;div&gt;str field&lt;/div&gt;" style="ellipse;whiteSpace=wrap;html=1;aspect=fixed;fillColor=#d80073;fontColor=#ffffff;strokeColor=#A50040;" vertex="1" parent="1">
          <mxGeometry x="80" y="910" width="80" height="80" as="geometry" />
        </mxCell>
        <mxCell id="MBzNhR4zbCW-CWqZMGOD-41" value="&lt;div&gt;int field&lt;/div&gt;" style="ellipse;whiteSpace=wrap;html=1;aspect=fixed;" vertex="1" parent="1">
          <mxGeometry x="265" y="910" width="80" height="80" as="geometry" />
        </mxCell>
        <mxCell id="MBzNhR4zbCW-CWqZMGOD-42" value="" style="edgeStyle=orthogonalEdgeStyle;rounded=0;orthogonalLoop=1;jettySize=auto;html=1;entryX=0.5;entryY=0;entryDx=0;entryDy=0;curved=1;" edge="1" parent="1" source="MBzNhR4zbCW-CWqZMGOD-44" target="MBzNhR4zbCW-CWqZMGOD-51">
          <mxGeometry relative="1" as="geometry">
            <Array as="points">
              <mxPoint x="490" y="1020" />
              <mxPoint x="370" y="1020" />
            </Array>
          </mxGeometry>
        </mxCell>
        <mxCell id="MBzNhR4zbCW-CWqZMGOD-43" value="" style="edgeStyle=orthogonalEdgeStyle;rounded=0;orthogonalLoop=1;jettySize=auto;html=1;curved=1;" edge="1" parent="1" source="MBzNhR4zbCW-CWqZMGOD-44" target="MBzNhR4zbCW-CWqZMGOD-53">
          <mxGeometry relative="1" as="geometry" />
        </mxCell>
        <mxCell id="MBzNhR4zbCW-CWqZMGOD-44" value="&lt;div&gt;dict field&lt;/div&gt;" style="ellipse;whiteSpace=wrap;html=1;aspect=fixed;" vertex="1" parent="1">
          <mxGeometry x="450" y="910" width="80" height="80" as="geometry" />
        </mxCell>
        <mxCell id="MBzNhR4zbCW-CWqZMGOD-68" value="" style="edgeStyle=orthogonalEdgeStyle;rounded=0;orthogonalLoop=1;jettySize=auto;html=1;curved=1;" edge="1" parent="1" source="MBzNhR4zbCW-CWqZMGOD-46" target="MBzNhR4zbCW-CWqZMGOD-55">
          <mxGeometry relative="1" as="geometry">
            <mxPoint x="840" y="950" as="targetPoint" />
            <Array as="points">
              <mxPoint x="680" y="1020" />
              <mxPoint x="820" y="1020" />
            </Array>
          </mxGeometry>
        </mxCell>
        <mxCell id="MBzNhR4zbCW-CWqZMGOD-46" value="&lt;div&gt;array field&lt;/div&gt;" style="ellipse;whiteSpace=wrap;html=1;aspect=fixed;" vertex="1" parent="1">
          <mxGeometry x="640" y="910" width="80" height="80" as="geometry" />
        </mxCell>
        <mxCell id="MBzNhR4zbCW-CWqZMGOD-47" value="&lt;div&gt;str field&lt;/div&gt;" style="ellipse;whiteSpace=wrap;html=1;aspect=fixed;" vertex="1" parent="1">
          <mxGeometry x="185" y="1190" width="80" height="80" as="geometry" />
        </mxCell>
        <mxCell id="MBzNhR4zbCW-CWqZMGOD-48" value="&lt;div&gt;int field&lt;/div&gt;" style="ellipse;whiteSpace=wrap;html=1;aspect=fixed;fillColor=#d80073;fontColor=#ffffff;strokeColor=#A50040;" vertex="1" parent="1">
          <mxGeometry x="370" y="1190" width="80" height="80" as="geometry" />
        </mxCell>
        <mxCell id="MBzNhR4zbCW-CWqZMGOD-49" value="" style="edgeStyle=orthogonalEdgeStyle;rounded=0;orthogonalLoop=1;jettySize=auto;html=1;curved=1;" edge="1" parent="1" source="MBzNhR4zbCW-CWqZMGOD-51" target="MBzNhR4zbCW-CWqZMGOD-48">
          <mxGeometry relative="1" as="geometry" />
        </mxCell>
        <mxCell id="MBzNhR4zbCW-CWqZMGOD-50" value="" style="edgeStyle=orthogonalEdgeStyle;rounded=0;orthogonalLoop=1;jettySize=auto;html=1;entryX=0.5;entryY=0;entryDx=0;entryDy=0;curved=1;" edge="1" parent="1" source="MBzNhR4zbCW-CWqZMGOD-51" target="MBzNhR4zbCW-CWqZMGOD-47">
          <mxGeometry relative="1" as="geometry">
            <mxPoint x="210" y="1100" as="targetPoint" />
            <Array as="points">
              <mxPoint x="370" y="1160" />
              <mxPoint x="225" y="1160" />
            </Array>
          </mxGeometry>
        </mxCell>
        <mxCell id="MBzNhR4zbCW-CWqZMGOD-51" value="&lt;div&gt;dict field&lt;/div&gt;" style="ellipse;whiteSpace=wrap;html=1;aspect=fixed;" vertex="1" parent="1">
          <mxGeometry x="330" y="1060" width="80" height="80" as="geometry" />
        </mxCell>
        <mxCell id="MBzNhR4zbCW-CWqZMGOD-52" value="" style="edgeStyle=orthogonalEdgeStyle;rounded=0;orthogonalLoop=1;jettySize=auto;html=1;curved=1;" edge="1" parent="1" source="MBzNhR4zbCW-CWqZMGOD-53" target="MBzNhR4zbCW-CWqZMGOD-56">
          <mxGeometry relative="1" as="geometry" />
        </mxCell>
        <mxCell id="MBzNhR4zbCW-CWqZMGOD-63" value="" style="edgeStyle=orthogonalEdgeStyle;rounded=0;orthogonalLoop=1;jettySize=auto;html=1;entryX=0.5;entryY=0;entryDx=0;entryDy=0;curved=1;" edge="1" parent="1" source="MBzNhR4zbCW-CWqZMGOD-53" target="MBzNhR4zbCW-CWqZMGOD-59">
          <mxGeometry relative="1" as="geometry">
            <mxPoint x="410" y="1100" as="targetPoint" />
            <Array as="points">
              <mxPoint x="570" y="1240" />
              <mxPoint x="480" y="1240" />
            </Array>
          </mxGeometry>
        </mxCell>
        <mxCell id="MBzNhR4zbCW-CWqZMGOD-65" value="" style="edgeStyle=orthogonalEdgeStyle;rounded=0;orthogonalLoop=1;jettySize=auto;html=1;curved=1;" edge="1" parent="1" source="MBzNhR4zbCW-CWqZMGOD-53" target="MBzNhR4zbCW-CWqZMGOD-58">
          <mxGeometry relative="1" as="geometry">
            <mxPoint x="730" y="1100" as="targetPoint" />
            <Array as="points">
              <mxPoint x="570" y="1240" />
              <mxPoint x="660" y="1240" />
            </Array>
          </mxGeometry>
        </mxCell>
        <mxCell id="MBzNhR4zbCW-CWqZMGOD-53" value="&lt;div&gt;array field&lt;/div&gt;" style="ellipse;whiteSpace=wrap;html=1;aspect=fixed;" vertex="1" parent="1">
          <mxGeometry x="530" y="1060" width="80" height="80" as="geometry" />
        </mxCell>
        <mxCell id="MBzNhR4zbCW-CWqZMGOD-54" value="" style="edgeStyle=orthogonalEdgeStyle;rounded=0;orthogonalLoop=1;jettySize=auto;html=1;curved=1;" edge="1" parent="1" source="MBzNhR4zbCW-CWqZMGOD-55" target="MBzNhR4zbCW-CWqZMGOD-57">
          <mxGeometry relative="1" as="geometry" />
        </mxCell>
        <mxCell id="MBzNhR4zbCW-CWqZMGOD-70" value="" style="edgeStyle=orthogonalEdgeStyle;rounded=0;orthogonalLoop=1;jettySize=auto;html=1;entryX=0.5;entryY=0;entryDx=0;entryDy=0;curved=1;" edge="1" parent="1" source="MBzNhR4zbCW-CWqZMGOD-55" target="MBzNhR4zbCW-CWqZMGOD-66">
          <mxGeometry relative="1" as="geometry">
            <mxPoint x="660" y="1100" as="targetPoint" />
            <Array as="points">
              <mxPoint x="820" y="1160" />
              <mxPoint x="730" y="1160" />
            </Array>
          </mxGeometry>
        </mxCell>
        <mxCell id="MBzNhR4zbCW-CWqZMGOD-72" value="" style="edgeStyle=orthogonalEdgeStyle;rounded=0;orthogonalLoop=1;jettySize=auto;html=1;entryX=0.5;entryY=0;entryDx=0;entryDy=0;curved=1;" edge="1" parent="1" source="MBzNhR4zbCW-CWqZMGOD-55" target="MBzNhR4zbCW-CWqZMGOD-60">
          <mxGeometry relative="1" as="geometry">
            <mxPoint x="980" y="1100" as="targetPoint" />
            <Array as="points">
              <mxPoint x="820" y="1160" />
              <mxPoint x="910" y="1160" />
            </Array>
          </mxGeometry>
        </mxCell>
        <mxCell id="MBzNhR4zbCW-CWqZMGOD-55" value="&lt;div&gt;array field&lt;/div&gt;" style="ellipse;whiteSpace=wrap;html=1;aspect=fixed;" vertex="1" parent="1">
          <mxGeometry x="780" y="1060" width="80" height="80" as="geometry" />
        </mxCell>
        <mxCell id="MBzNhR4zbCW-CWqZMGOD-56" value="&lt;div&gt;int field&lt;/div&gt;" style="ellipse;whiteSpace=wrap;html=1;aspect=fixed;fillColor=#d80073;fontColor=#ffffff;strokeColor=#A50040;" vertex="1" parent="1">
          <mxGeometry x="530" y="1320" width="80" height="80" as="geometry" />
        </mxCell>
        <mxCell id="MBzNhR4zbCW-CWqZMGOD-57" value="&lt;div&gt;str field&lt;/div&gt;" style="ellipse;whiteSpace=wrap;html=1;aspect=fixed;fillColor=#d80073;fontColor=#ffffff;strokeColor=#A50040;" vertex="1" parent="1">
          <mxGeometry x="780" y="1190" width="80" height="80" as="geometry" />
        </mxCell>
        <mxCell id="MBzNhR4zbCW-CWqZMGOD-58" value="&lt;div&gt;int field&lt;/div&gt;" style="ellipse;whiteSpace=wrap;html=1;aspect=fixed;fillColor=#d80073;fontColor=#ffffff;strokeColor=#A50040;" vertex="1" parent="1">
          <mxGeometry x="620" y="1320" width="80" height="80" as="geometry" />
        </mxCell>
        <mxCell id="MBzNhR4zbCW-CWqZMGOD-59" value="&lt;div&gt;int field&lt;/div&gt;" style="ellipse;whiteSpace=wrap;html=1;aspect=fixed;fillColor=#d80073;fontColor=#ffffff;strokeColor=#A50040;" vertex="1" parent="1">
          <mxGeometry x="440" y="1320" width="80" height="80" as="geometry" />
        </mxCell>
        <mxCell id="MBzNhR4zbCW-CWqZMGOD-60" value="&lt;div&gt;str field&lt;/div&gt;" style="ellipse;whiteSpace=wrap;html=1;aspect=fixed;fillColor=#d80073;fontColor=#ffffff;strokeColor=#A50040;" vertex="1" parent="1">
          <mxGeometry x="870" y="1190" width="80" height="80" as="geometry" />
        </mxCell>
        <mxCell id="MBzNhR4zbCW-CWqZMGOD-66" value="&lt;div&gt;str field&lt;/div&gt;" style="ellipse;whiteSpace=wrap;html=1;aspect=fixed;fillColor=#d80073;fontColor=#ffffff;strokeColor=#A50040;" vertex="1" parent="1">
          <mxGeometry x="690" y="1190" width="80" height="80" as="geometry" />
        </mxCell>
        <mxCell id="MBzNhR4zbCW-CWqZMGOD-73" value="Legend" style="swimlane;whiteSpace=wrap;html=1;" vertex="1" parent="1">
          <mxGeometry x="-460" y="20" width="270" height="330" as="geometry" />
        </mxCell>
        <mxCell id="MBzNhR4zbCW-CWqZMGOD-74" value="&lt;div&gt;&amp;lt;type&amp;gt; field&lt;/div&gt;" style="ellipse;whiteSpace=wrap;html=1;aspect=fixed;" vertex="1" parent="MBzNhR4zbCW-CWqZMGOD-73">
          <mxGeometry x="20" y="40" width="80" height="80" as="geometry" />
        </mxCell>
        <mxCell id="MBzNhR4zbCW-CWqZMGOD-75" value="&lt;font style=&quot;font-size: 15px;&quot;&gt;Field with value pointing to NULL&lt;/font&gt;" style="text;html=1;align=center;verticalAlign=middle;whiteSpace=wrap;rounded=0;" vertex="1" parent="MBzNhR4zbCW-CWqZMGOD-73">
          <mxGeometry x="140" y="47.5" width="110" height="65" as="geometry" />
        </mxCell>
        <mxCell id="MBzNhR4zbCW-CWqZMGOD-76" value="&lt;div&gt;&amp;lt;type&amp;gt; field&lt;/div&gt;" style="ellipse;whiteSpace=wrap;html=1;aspect=fixed;fillColor=#d80073;fontColor=#ffffff;strokeColor=#A50040;" vertex="1" parent="MBzNhR4zbCW-CWqZMGOD-73">
          <mxGeometry x="20" y="170" width="80" height="80" as="geometry" />
        </mxCell>
        <mxCell id="MBzNhR4zbCW-CWqZMGOD-77" value="&lt;font style=&quot;font-size: 15px;&quot;&gt;Field with value pointing to valid memory&lt;/font&gt;" style="text;html=1;align=center;verticalAlign=middle;whiteSpace=wrap;rounded=0;" vertex="1" parent="MBzNhR4zbCW-CWqZMGOD-73">
          <mxGeometry x="140" y="185" width="110" height="65" as="geometry" />
        </mxCell>
        <mxCell id="MBzNhR4zbCW-CWqZMGOD-82" value="This field is declared with&amp;nbsp;&lt;div&gt;default value.&lt;/div&gt;" style="ellipse;shape=cloud;whiteSpace=wrap;html=1;fontSize=13;" vertex="1" parent="1">
          <mxGeometry x="110" y="300" width="120" height="80" as="geometry" />
        </mxCell>
      </root>
    </mxGraphModel>
  </diagram>
</mxfile>
